<svg xmlns="http://www.w3.org/2000/svg" width="134" height="27" style=""><rect id="backgroundrect" width="100%" height="100%" x="0" y="0" fill="none" stroke="none"/><g class="currentLayer" style=""><title>Layer 1</title><path d="M19.002697219848635,22.189282592773438 L1.0626972198486335,9.814282592773438 c-1.818,-1.254 -1.2,-3.865 1.067,-4.479 L21.19669721984863,0.16028259277343437 A2.7,2.7 0 0 1 24.81269721984863,2.652282592773439 L23.682697219848635,20.20128259277344 C23.548697219848634,22.284282592773437 20.820697219848633,23.443282592773436 19.002697219848635,22.189282592773438 z" fill="#e9327c" id="svg_1" class=""/><path d="M13.31269721984863,25.244282592773438 L2.7436972198486345,4.575282592773441 a2.883,2.883 0 0 1 3.007,-4.161 l19.587,3.023 a2.883,2.883 0 0 1 2.127,4.162 L18.441697219848635,25.245282592773435 A2.883,2.883 0 0 1 13.31269721984863,25.244282592773438 z" fill="#1dace3" id="svg_2" class=""/><path d="M24.764697219848635,3.3482825927734368 l-9.764,-1.5070000000000001 L3.012697219848633,5.096282592773434 l4.785,9.361 L19.002697219848635,22.189282592773438 a2.888,2.888 0 0 0 0.806,0.38300000000000006 l4.256,-8.323 z" fill="#001a49" id="svg_3" class=""/><path d="M74.22169721984864,5.764282592773441 a1.835,1.835 0 1 1 1.835,1.835 A1.854,1.854 0 0 1 74.22169721984864,5.764282592773441 zm0.30600000000000005,2.732 h3.059 V18.690282592773436 H74.52769721984863 z" fill="#001a49" id="svg_4" class=""/><path d="M90.79669721984864,13.593282592773434 a5.119,5.119 0 0 1 -4.872,5.383 a3.829,3.829 0 0 1 -3.038,-1.244 v5.036 h-3.058 V8.49628259277344 h3.058 v0.9580000000000001 a3.829,3.829 0 0 1 3.038,-1.243 A5.118,5.118 0 0 1 90.79669721984864,13.593282592773434 zm-3.058,0 a2.427,2.427 0 1 0 -2.426,2.488 A2.327,2.327 0 0 0 87.73869721984863,13.593282592773434 z" fill="#001a49" id="svg_5" class=""/><path d="M100.23569721984863,15.63028259277344 c0,2.345 -2.039,3.3440000000000003 -4.241,3.3440000000000003 a4.463,4.463 0 0 1 -4.383,-2.427 l2.6500000000000004,-1.508 a1.6750000000000003,1.6750000000000003 0 0 0 1.733,1.2 c0.7340000000000001,0 1.1,-0.22500000000000003 1.1,-0.6320000000000001 c0,-1.122 -5.015,-0.53 -5.015,-4.058 c0,-2.222 1.875,-3.343 4,-3.343 a4.46,4.46 0 0 1 3.975,2.181 l-2.609,1.407 a1.481,1.481 0 0 0 -1.366,-0.9 c-0.53,0 -0.8560000000000001,0.2 -0.8560000000000001,0.5710000000000001 C95.22069721984863,12.635282592773436 100.23569721984863,11.860282592773437 100.23569721984863,15.63028259277344 z" fill="#001a49" id="svg_6" class=""/><path d="M111.41269721984864,8.49628259277344 V18.690282592773436 h-3.058 V17.730282592773435 a3.489,3.489 0 0 1 -2.916,1.244 c-2.059,0 -3.8120000000000003,-1.468 -3.8120000000000003,-4.221 V8.49628259277344 h3.058 v5.811 a1.681,1.681 0 0 0 1.774,1.855 c1.121,0 1.9,-0.6520000000000001 1.9,-2.1 V8.49628259277344 z" fill="#001a49" id="svg_7" class=""/><path d="M128.94069721984863,12.430282592773438 V18.690282592773436 H125.88269721984864 V12.696282592773436 c0,-1.019 -0.49000000000000005,-1.6720000000000002 -1.468,-1.6720000000000002 c-1.02,0 -1.59,0.7140000000000001 -1.59,1.917 V18.690282592773436 h-3.059 V12.696282592773436 c0,-1.019 -0.48900000000000005,-1.6720000000000002 -1.468,-1.6720000000000002 c-1.019,0 -1.59,0.7140000000000001 -1.59,1.917 V18.690282592773436 h-3.058 V8.49628259277344 H116.71269721984862 V9.430282592773438 a3.129,3.129 0 0 1 2.732,-1.223 a3.034,3.034 0 0 1 2.6710000000000003,1.3450000000000002 a3.359,3.359 0 0 1 2.957,-1.3450000000000002 C127.41269721984864,8.211282592773436 128.94069721984863,9.882282592773436 128.94069721984863,12.430282592773438 z" fill="#001a49" id="svg_8" class=""/><circle cx="131.53169441223145" cy="6.1632843017578125" r="2.2699999809265137" fill="#001a49" id="svg_9" class=""/><path d="M32.46969721984863,3.80728259277344 h3.059 V18.690282592773436 H32.46969721984863 zm4.791,9.786 a5.4,5.4 0 1 1 5.4,5.383 A5.343,5.343 0 0 1 37.26069721984863,13.593282592773434 zm7.748,0 a2.345,2.345 0 1 0 -2.345,2.406 A2.287,2.287 0 0 0 45.01269721984863,13.593282592773434 zm15.249,-5.1 v9.685 c0,3.425 -2.6710000000000003,4.872 -5.382,4.872 a5.212,5.212 0 0 1 -4.832,-2.467 l2.609,-1.509 a2.331,2.331 0 0 0 2.325,1.2850000000000001 a2.032,2.032 0 0 0 2.3,-2.181 v-0.9380000000000001 a3.622,3.622 0 0 1 -2.977,1.3250000000000002 a5.181,5.181 0 0 1 0,-10.357 a3.622,3.622 0 0 1 2.977,1.3250000000000002 v-1.04 zm-2.976,4.893 A2.47,2.47 0 1 0 54.81269721984863,15.75528259277344 A2.308,2.308 0 0 0 57.28169721984864,13.38928259277344 zm4.708,0.2 a5.4,5.4 0 1 1 5.4,5.383 A5.343,5.343 0 0 1 61.98969721984864,13.593282592773434 zm7.748,0 a2.346,2.346 0 1 0 -2.345,2.406 A2.287,2.287 0 0 0 69.73769721984863,13.593282592773434 z" fill="#001a49" id="svg_10" class=""/></g></svg>